<svg xmlns="http://www.w3.org/2000/svg" viewBox="0 0 651 659"><path fill="#b80d7f" d="M148.5 49h31l1 1h6l1 1 9 1 4 2h3l9 3 21 10 8 5q15.75 11.25 28.5 25.5l15 19 11 20v2l4 9 1 8 1 1v19l-5 14-8.5 9.5-9 4h-12l-1-1h-4l-6-3h-2l-13-8-19.5-18.5-31.5-41.5-3-2h-6l-5.5 5.5-1 3v7l5 11 14 21q12 15.5 26.5 28.5l20 17 15 10 19 10h2l7 4h2l5 3 7.5 7.5 3 6 1 10-3 8-4.5 5.5-7 4q-3.25-.75-4 1h-14l-1-1h-4l-1-1-7-1-6-3h-2l-20-10-18-12-20-16-27.5-27.5-18-22-13-20-6.5-7.5-7-3-3 1-4.5 4.5-1 3v5l1 1v4l3 9 5 10 13 20q18.91 25.59 42.5 46.5l26 21 21 14 15 8 2 2 22 11h2l7 4h2l3 2h2l14 6 9.5 8.5 4 8q-.75 3.25 1 4v6l-3 7-3.5 4.5-7 4q-3.25-.75-4 1h-16l-1-1-9-1-15-5-33-16-2-2-10-5-38-26-25-21-13.5-13.5-8.5-9.5q-2.5-2-8-1-6.1 3.4-6.5 12.5 4.19 11.81 11 21l21.5 24.5 17 15 17 13 31 20 40 19 5 1 3 2 21 7h3l9 3q10.31 4.19 17.5 11.5l6 10 1 8-3 9-4.5 5.5-8 4-11 1-1-1h-6l-1-1h-4l-1-1h-4l-1-1-11-2-18-6-3-2h-2l-3-2-5-1-5-3-7-2-29-14-2-2-20-11-28-20q-20.13-15.87-37.5-34.5l-18-21-18-26-6-10-16-33-7-21v-3l-2-5v-4l-1-1v-5l-1-1v-7l-1-1v-36l1-1v-8l1-1v-5l1-1v-4l1-1 2-11 4-12 4-8v-2l6-12 10-16Q59.03 95.53 70.5 85l21-16 19-10h2l3-2 9-3h3l9-3h4l1-1h6zm297 0h30l1 1h7q1 2 5 1l1 1h3l1 1h3l1 1h3l9 3 19 9 11 7L562 92.5l13 16 10 16 6 12v2l2 3v2l2 3 4 12v3l3 9 1 11 1 1v7l1 1v35l-1 1v7l-1 1v5l-1 1-1 9-1 1v3l-2 4v3l-2 6-7 15v2l-11 22-2 2-5 10-18 26-18 21-15.5 15.5-17 15-24 18-24 15-27 14h-2l-7 4h-2l-23 10-18 6h-3l-9 3h-4l-1 1h-4l-1 1-13 1q-1.25-2.25-6-1l-9.5-6.5-4-7-1-9 1-1 1-6 7.5-9.5 5-4 10-5 33-10 3-2 12-4 5-3h2l26-13 15-9 24-17 16-13 15.5-14.5 18-22 8-15 1-6-2-5-4.5-4.5q-5.5-1-8 1l-8.5 8.5-13.5 14.5-33 27-22 15-20 12-26 13h-2l-5 3-15 5-9 1-1 1h-16l-10-4-2.5-2.5-5-10v-7l3-8 8.5-9.5 9-5 5-1 17-8h2l22-11 2-2 15-8 18-12 22-17 32.5-31.5 14-17 16-24 5-10 3-9 1-10q-1.67-4.83-5.5-7.5l-3-1q-.75 1.75-4 1l-6.5 5.5q-25.29 41.21-60.5 72.5l-17 14-19 13-23 12-5 1-3 2h-3l-5 2h-4l-1 1h-14l-8-3-5.5-4.5-4-7q.75-3.25-1-4v-6l4-10 7.5-7.5 30-14 20-13q19.06-14.94 35.5-32.5 12.3-13.2 22-29l8-16v-7l-1-3-5.5-5.5h-6l-4.5 3.5-25 34-19.5 20.5-14 10-9 4-7 1-1 1h-12l-9-4-6.5-6.5-5-9-1-7-1-1v-20l1-1 1-7 4-9v-2l9-17q13.45-20.55 31.5-36.5l17-13 21-11 21-7h4l6-2h6z"/><path fill="currentColor" d="m453.5 515 7 1 5.5 4.5 6 13 5 16 2 3 1 5 2 3 1 5 5 11 3 9v3l1 1v5l-4.5 5.5-7 1-3-1-3.5-3.5-4.5-12.5-29.5.5-2 8q-1.67 4.83-5.5 7.5l-7 1-3-1-3.5-3.5q-1.83-2.17-1-7l6-18 2-3 2-8 2-3 1-5 5-11 2-8 2-3v-2l4-8 3.5-3.5zm2.5 24-9 26v1h17zm143.5-23h9q4.83 1.67 7.5 5.5l2 5v6l-2 5-4.5 4.5-2 1h-11l-6.5-5.5-2-5v-6l2-5 3.5-3.5zm3.5 4-2 1v1h7q-1-3-5-2m-5 3-3 5v4l2 4h1zm13 0-1 7-2 2q2 1 3 4l2-4v-3zm-8 3v2q3 1 3-1zm0 5-1 6-3 1 3 1q5 1 7-1l-1-1zM36.5 517q9.75-1.75 12.5 3.5l2 5 1 9 2 5v4l1 1v4l2 5v4l1 1 1.5 8.5L71 532.5l1-6 3-6 2.5-2.5q3.17-2.33 10-1l4.5 3.5 3 6v3l12.5 37.5 1.5-8.5 1-1v-4l2-5 1-9 2-5 1-9 2-5 2.5-2.5q3.17-2.33 10-1l5.5 4.5 1 6-1 1v4l-1 1v3l-1 1v3l-1 1v3l-1 1-3 15-1 1v4l-1 1v3l-1 1v3l-1 1-3 15-3 7-2.5 2.5-5 2h-6l-5-2-3.5-3.5-5-13v-3L83.5 554 74 582.5v3l-2 6q-1.67 4.83-5.5 7.5l-6 2h-5l-5-2-2.5-2.5-3-7v-3l-1-1v-3l-1-1v-3l-1-1v-3l-1-1v-3l-1-1v-3l-3-9v-4l-1-1v-3l-1-1v-3l-1-1v-3l-3-9-1-8 1-3 3.5-3.5zm113 0q9.75-1.75 12.5 3.5l1 2v73l-4.5 4.5-7 1-3-1-3.5-3.5-1-2v-72l3.5-4.5zm28 0q9.75-1.75 12.5 3.5l1 2 .5 59.5h23l5.5 4.5v9l-3.5 3.5-2 1h-36l-5.5-3.5-1-2v-72l3.5-4.5zm58 0h29q1.25 2.25 6 1l10 4 10.5 9.5 5 9 2 6q-1 4 1 5v13q-2.25 1.25-1 6l-5 12-9.5 10.5-9 5-7 1-1 1h-32l-5.5-4.5-1-3v-68l3.5-5.5zm13.5 19v46h12l8-3 7-8 1-7 1-1v-9l-3-9q-4-6-10-9zm56.5-19h45l3 1 3.5 3.5 1 7-1 3-2.5 2.5q-1.83 1.67-6 1l-1 1-9.5.5v56l-3.5 6.5-5 2h-4l-3-1-3.5-3.5-1-3-.5-57.5h-10l-6-2-2.5-2.5q-2-2.5-1-8l4.5-5.5zm66 0h33l3 1 3.5 3.5q1.83 2.17 1 7l-1 3-2.5 2.5-6 2-19.5.5.5 12.5h19l6.5 3.5q2.33 3.17 1 10l-4.5 4.5q-3.25-.75-4 1l-18.5.5.5 13.5h23l5.5 4.5v9l-3.5 3.5-2 1h-36l-6.5-5.5v-71l4.5-5.5zm144 0h11l4.5 3.5 4 8 10.5 33.5 1.5-.5 7-21v-3l2-6 6.5-12.5 3-2h11l5.5 4.5 2 5 1 9 1 1v5l1 1v5l1 1v5l2 6v5l1 1v5l2 6v5l1 1v7l1 3-3.5 6.5-4 2h-5l-3-1-3.5-3.5-2-6-1-11-1-1v-6l-1-1v-6l-1-1v-5l-1.5-4.5-12.5 40.5-4.5 4.5-3 1h-5l-3-1-3.5-3.5-3-7v-3l-5-13v-3l-5.5-16.5-.5 4.5-1 1v6l-1 1-1 12-1 1-1 12-2 5-3.5 3.5-3 1h-5l-6.5-5.5v-12l1-1 1-11 1-1 1-10 1-1v-5l2-6v-5l1-1 1-11 1-1 1-7 3.5-4.5z"/></svg>